<svg aria-hidden="true" style="position: absolute; width: 0; height: 0; overflow: hidden;" version="1.1" xmlns="http://www.w3.org/2000/svg" xmlns:xlink="http://www.w3.org/1999/xlink">
<defs>
<symbol id="icon-Customer4" viewBox="0 0 66 32">
<path fill="#8e8f99" style="fill: var(--color1, #8e8f99)" d="M10.207 9.77h-0.002c-1.861 0-3.372 1.361-3.372 3.039v0.002c0 1.678 1.51 3.039 3.372 3.039h0.002c1.862 0 3.372-1.36 3.372-3.039v-0.002c0-1.678-1.509-3.039-3.372-3.039zM35.092 8.798c-0.005-2.331-1.034-4.566-2.863-6.216-1.829-1.648-4.307-2.577-6.894-2.583-2.587 0.004-5.066 0.933-6.896 2.582s-2.86 3.885-2.864 6.217v12.858s19.515-1.959 19.516-12.855v-0.002zM0 25.876c0.005 1.623 0.721 3.177 1.993 4.325s2.997 1.794 4.796 1.799c1.799-0.005 3.523-0.651 4.795-1.798s1.989-2.701 1.994-4.324v-8.945s-13.579 1.363-13.579 8.944zM6.789 27.479c-0.351 0-0.695-0.094-0.988-0.27-0.285-0.17-0.51-0.416-0.651-0.71l-0.004-0.010c-0.085-0.18-0.135-0.391-0.135-0.613 0-0.111 0.012-0.218 0.036-0.322l-0.002 0.010c0.077-0.329 0.249-0.61 0.485-0.82l0.002-0.001c0.247-0.22 0.557-0.376 0.9-0.437l0.011-0.002c0.344-0.062 0.702-0.030 1.027 0.091s0.603 0.326 0.798 0.59 0.3 0.574 0.3 0.891c0.001 0.211-0.044 0.421-0.133 0.616s-0.22 0.372-0.385 0.522c-0.163 0.147-0.355 0.265-0.565 0.345l-0.012 0.004c-0.202 0.078-0.436 0.123-0.68 0.123-0.001 0-0.002 0-0.002 0h0v-0.006zM19.207 24.597v3.33h-0.686v-3.33h0.686zM20.534 26.019v0.535h-1.514v-0.535h1.514zM20.693 24.597v0.537h-1.673v-0.537h1.673zM23.826 26.184v0.158c0 0.254-0.034 0.481-0.103 0.681-0.066 0.199-0.165 0.37-0.292 0.517l0.002-0.002c-0.125 0.14-0.275 0.247-0.448 0.322-0.163 0.071-0.354 0.112-0.554 0.112-0.007 0-0.014-0-0.022-0h0.001c-0.208 0-0.4-0.037-0.574-0.112-0.176-0.077-0.326-0.186-0.447-0.321l-0.001-0.001c-0.127-0.145-0.228-0.316-0.292-0.505l-0.003-0.011c-0.065-0.194-0.103-0.418-0.103-0.651 0-0.011 0-0.021 0-0.032l-0 0.002v-0.158c0-0.254 0.034-0.482 0.103-0.681 0.066-0.198 0.165-0.37 0.292-0.516l-0.002 0.002c0.126-0.142 0.276-0.25 0.448-0.325 0.174-0.075 0.365-0.112 0.574-0.112 0.211 0 0.402 0.037 0.574 0.112 0.174 0.075 0.323 0.183 0.448 0.325 0.126 0.142 0.224 0.313 0.293 0.515 0.070 0.199 0.105 0.426 0.105 0.681zM23.133 26.341v-0.162c0-0.176-0.016-0.332-0.048-0.466-0.029-0.128-0.078-0.242-0.144-0.342l0.002 0.004c-0.058-0.087-0.135-0.157-0.225-0.204l-0.003-0.002c-0.086-0.044-0.188-0.070-0.295-0.070-0.005 0-0.010 0-0.015 0h0.001c-0.116 0-0.219 0.023-0.308 0.070-0.093 0.050-0.169 0.12-0.225 0.204l-0.001 0.002c-0.063 0.097-0.111 0.21-0.138 0.332l-0.001 0.007c-0.030 0.131-0.048 0.282-0.048 0.437 0 0.010 0 0.020 0 0.031l-0-0.002v0.162c0 0.176 0.016 0.331 0.048 0.467 0.032 0.134 0.080 0.247 0.142 0.341 0.062 0.091 0.139 0.161 0.229 0.208s0.193 0.071 0.308 0.071c0.116 0 0.219-0.023 0.309-0.070 0.093-0.050 0.169-0.121 0.225-0.206l0.001-0.002c0.061-0.094 0.108-0.207 0.14-0.341 0.030-0.132 0.048-0.283 0.048-0.439 0-0.010-0-0.020-0-0.029l0 0.002zM26.053 27.055c0-0.002 0-0.005 0-0.007 0-0.055-0.010-0.107-0.028-0.156l0.001 0.003c-0.020-0.054-0.053-0.098-0.095-0.132l-0.001-0c-0.057-0.047-0.123-0.088-0.194-0.119l-0.005-0.002c-0.089-0.041-0.199-0.083-0.312-0.118l-0.020-0.005c-0.175-0.057-0.317-0.112-0.456-0.175l0.026 0.011c-0.136-0.061-0.253-0.132-0.361-0.215l0.004 0.003c-0.098-0.078-0.179-0.174-0.239-0.282l-0.003-0.005c-0.055-0.105-0.088-0.229-0.088-0.361 0-0.006 0-0.011 0-0.017v0.001c-0-0.003-0-0.007-0-0.011 0-0.134 0.034-0.26 0.093-0.371l-0.002 0.004c0.061-0.115 0.147-0.212 0.256-0.293 0.109-0.083 0.24-0.146 0.389-0.19 0.151-0.044 0.316-0.066 0.496-0.066 0.245 0 0.46 0.044 0.642 0.133s0.325 0.21 0.425 0.364c0.101 0.154 0.153 0.33 0.153 0.528h-0.681c0-0.003 0-0.008 0-0.012 0-0.090-0.023-0.174-0.063-0.247l0.001 0.003c-0.042-0.076-0.104-0.137-0.18-0.175l-0.002-0.001c-0.083-0.041-0.18-0.064-0.283-0.064-0.009 0-0.017 0-0.025 0l0.001-0c-0.007-0-0.015-0-0.023-0-0.099 0-0.193 0.020-0.278 0.057l0.005-0.002c-0.074 0.030-0.135 0.080-0.179 0.143l-0.001 0.001c-0.037 0.055-0.059 0.122-0.059 0.195 0 0.002 0 0.004 0 0.007v-0c0 0.056 0.013 0.108 0.041 0.153 0.035 0.051 0.077 0.094 0.127 0.127l0.002 0.001c0.056 0.040 0.125 0.077 0.208 0.112s0.178 0.069 0.286 0.103c0.182 0.055 0.341 0.116 0.478 0.185s0.254 0.145 0.347 0.231c0.094 0.086 0.163 0.182 0.211 0.29s0.070 0.231 0.070 0.368c0 0.010 0.001 0.021 0.001 0.032 0 0.265-0.129 0.5-0.328 0.645l-0.002 0.002c-0.106 0.079-0.234 0.139-0.382 0.18s-0.313 0.062-0.496 0.062c-0.164 0-0.327-0.022-0.487-0.065-0.166-0.046-0.312-0.114-0.442-0.202l0.005 0.003c-0.128-0.088-0.233-0.201-0.308-0.333l-0.003-0.005c-0.078-0.137-0.116-0.3-0.116-0.487h0.688c0 0.104 0.016 0.191 0.048 0.263 0.031 0.070 0.077 0.128 0.134 0.173l0.001 0.001c0.060 0.044 0.13 0.077 0.207 0.095l0.004 0.001c0.082 0.020 0.172 0.030 0.269 0.030 0.008 0 0.017 0 0.026 0 0.096 0 0.188-0.018 0.272-0.052l-0.005 0.002c0.135-0.054 0.229-0.184 0.229-0.336 0-0.002 0-0.003-0-0.005v0zM28.694 24.597v3.33h-0.684v-3.33h0.684zM29.719 24.597v0.537h-2.716v-0.537h2.716zM32.343 27.391v0.535h-1.772v-0.535h1.772zM30.796 24.597v3.33h-0.687v-3.33h0.687zM32.112 25.953v0.521h-1.541v-0.521h1.541zM32.341 24.597v0.537h-1.77v-0.537h1.77zM32.744 24.597h1.241c0.255 0 0.474 0.038 0.656 0.114 0.185 0.076 0.326 0.19 0.425 0.339s0.148 0.333 0.148 0.551c0 0.179-0.030 0.332-0.091 0.46-0.060 0.128-0.146 0.234-0.252 0.316l-0.002 0.001c-0.109 0.084-0.236 0.152-0.372 0.199l-0.009 0.003-0.217 0.115h-1.079l-0.005-0.535h0.802c0.007 0 0.015 0 0.023 0 0.101 0 0.196-0.024 0.281-0.066l-0.004 0.002c0.077-0.041 0.138-0.102 0.178-0.176l0.001-0.002c0.039-0.073 0.062-0.161 0.062-0.253 0-0.004-0-0.009-0-0.013v0.001c0-0.004 0-0.010 0-0.015 0-0.095-0.022-0.185-0.061-0.265l0.002 0.004c-0.040-0.078-0.103-0.139-0.179-0.177l-0.002-0.001c-0.083-0.040-0.18-0.063-0.283-0.063-0.008 0-0.015 0-0.023 0l0.001-0h-0.556v2.793h-0.685v-3.33zM34.605 27.927l-0.759-1.485 0.724-0.005 0.769 1.457v0.031h-0.734zM38.206 26.74h-0.848v-0.535h0.848c0.008 0 0.018 0.001 0.027 0.001 0.106 0 0.207-0.024 0.297-0.066l-0.004 0.002c0.078-0.041 0.141-0.104 0.179-0.181l0.001-0.002c0.036-0.079 0.057-0.172 0.057-0.27s-0.021-0.19-0.058-0.274l0.002 0.004c-0.039-0.087-0.101-0.157-0.178-0.205l-0.002-0.001c-0.085-0.049-0.186-0.079-0.295-0.079-0.009 0-0.018 0-0.026 0.001l0.001-0h-0.611v2.793h-0.685v-3.33h1.296c0.261 0 0.484 0.047 0.671 0.142 0.187 0.093 0.33 0.222 0.429 0.386s0.148 0.353 0.148 0.564c0 0.215-0.049 0.401-0.148 0.558s-0.242 0.279-0.429 0.364c-0.187 0.086-0.41 0.128-0.671 0.128zM42.162 27.391v0.535h-1.772v-0.535h1.772zM40.614 24.597v3.33h-0.687v-3.33h0.687zM41.931 25.953v0.521h-1.541v-0.521h1.541zM42.16 24.597v0.537h-1.769v-0.537h1.77zM44.096 24.597v3.33h-0.683v-3.33h0.684zM45.121 24.597v0.537h-2.716v-0.537h2.716zM47.746 27.391v0.535h-1.772v-0.535h1.772zM46.198 24.597v3.33h-0.686v-3.33h0.686zM47.515 25.953v0.521h-1.541v-0.521h1.541zM47.743 24.597v0.537h-1.769v-0.537h1.769zM48.146 24.597h1.241c0.255 0 0.474 0.038 0.657 0.114s0.326 0.19 0.425 0.339c0.098 0.149 0.148 0.333 0.148 0.551 0 0.179-0.031 0.332-0.091 0.46s-0.146 0.234-0.252 0.316l-0.002 0.001c-0.109 0.084-0.236 0.152-0.373 0.199l-0.009 0.003-0.217 0.115h-1.079l-0.005-0.535h0.803c0.007 0 0.014 0 0.022 0 0.101 0 0.196-0.024 0.281-0.066l-0.004 0.002c0.077-0.041 0.138-0.102 0.178-0.176l0.001-0.002c0.039-0.074 0.063-0.162 0.063-0.255 0-0.004-0-0.008-0-0.011v0.001c0-0.004 0-0.009 0-0.014 0-0.096-0.022-0.186-0.062-0.266l0.002 0.004c-0.040-0.078-0.103-0.139-0.179-0.177l-0.002-0.001c-0.083-0.040-0.18-0.063-0.283-0.063-0.008 0-0.015 0-0.023 0l0.001-0h-0.555v2.793h-0.686v-3.33zM50.007 27.927l-0.759-1.485 0.725-0.005 0.768 1.457v0.031h-0.734zM52.88 27.055c0-0.002 0-0.003 0-0.005 0-0.056-0.010-0.109-0.029-0.158l0.001 0.003c-0.020-0.054-0.053-0.098-0.095-0.132l-0.001-0c-0.057-0.047-0.123-0.088-0.194-0.119l-0.005-0.002c-0.089-0.041-0.198-0.083-0.311-0.118l-0.020-0.005c-0.176-0.056-0.318-0.112-0.456-0.175l0.026 0.011c-0.136-0.061-0.253-0.132-0.361-0.215l0.004 0.003c-0.098-0.078-0.179-0.174-0.239-0.282l-0.002-0.005c-0.055-0.105-0.088-0.229-0.088-0.361 0-0.006 0-0.011 0-0.017v0.001c-0-0.003-0-0.007-0-0.011 0-0.134 0.034-0.26 0.093-0.371l-0.002 0.004c0.061-0.115 0.147-0.212 0.256-0.293 0.109-0.083 0.24-0.146 0.389-0.19 0.151-0.044 0.316-0.066 0.496-0.066 0.245 0 0.46 0.044 0.642 0.133s0.325 0.21 0.425 0.364c0.102 0.154 0.153 0.33 0.153 0.528h-0.681c0-0.003 0-0.008 0-0.012 0-0.090-0.023-0.174-0.063-0.247l0.001 0.003c-0.042-0.076-0.104-0.137-0.18-0.175l-0.002-0.001c-0.083-0.041-0.18-0.064-0.283-0.064-0.008 0-0.017 0-0.025 0l0.001-0c-0.007-0-0.015-0-0.023-0-0.099 0-0.193 0.020-0.278 0.057l0.005-0.002c-0.074 0.030-0.135 0.080-0.178 0.143l-0.001 0.001c-0.037 0.055-0.059 0.123-0.059 0.196 0 0.002 0 0.004 0 0.005v-0c0 0.056 0.013 0.108 0.041 0.153 0.035 0.051 0.077 0.094 0.127 0.127l0.002 0.001c0.056 0.040 0.125 0.077 0.208 0.112s0.178 0.069 0.286 0.103c0.182 0.055 0.341 0.116 0.478 0.185s0.254 0.145 0.347 0.231c0.094 0.086 0.163 0.182 0.211 0.29s0.070 0.231 0.070 0.368c0 0.010 0.001 0.021 0.001 0.032 0 0.265-0.129 0.5-0.328 0.645l-0.002 0.002c-0.106 0.079-0.234 0.139-0.382 0.18s-0.313 0.062-0.496 0.062c-0.165 0-0.328-0.022-0.487-0.065-0.166-0.046-0.312-0.114-0.442-0.202l0.005 0.003c-0.129-0.088-0.233-0.201-0.309-0.333l-0.003-0.005c-0.078-0.137-0.116-0.3-0.116-0.487h0.688c0 0.104 0.016 0.191 0.048 0.263 0.031 0.070 0.077 0.128 0.134 0.173l0.001 0.001c0.060 0.044 0.13 0.077 0.207 0.095l0.004 0.001c0.082 0.020 0.172 0.030 0.27 0.030 0.007 0 0.016 0 0.025 0 0.096 0 0.188-0.018 0.272-0.052l-0.005 0.002c0.135-0.054 0.229-0.184 0.229-0.336 0-0.002 0-0.003-0-0.005v0z"></path>
</symbol>
<symbol id="icon-Customer6" viewBox="0 0 59 32">
<path fill="#8e8f99" style="fill: var(--color1, #8e8f99)" d="M30.589 15.682c-0.219-0.282-0.35-0.64-0.35-1.029 0-0.038 0.001-0.076 0.004-0.114l-0 0.005v-1.65c0-0.506 0.115-0.89 0.345-1.153s0.624-0.394 1.183-0.393c0.526 0 0.898 0.112 1.119 0.336 0.24 0.286 0.357 0.635 0.33 0.987v0.389h-0.939v-0.393c0.003-0.129-0.006-0.257-0.027-0.385-0.016-0.093-0.064-0.172-0.133-0.228l-0.001-0.001c-0.084-0.056-0.188-0.090-0.3-0.090-0.014 0-0.029 0.001-0.043 0.002l0.002-0c-0.012-0.001-0.027-0.001-0.041-0.001-0.118 0-0.228 0.036-0.319 0.097l0.002-0.001c-0.078 0.062-0.133 0.149-0.155 0.249l-0.001 0.003c-0.024 0.113-0.037 0.243-0.037 0.376 0 0.011 0 0.023 0 0.034l-0-0.002v2.003c-0.002 0.023-0.003 0.049-0.003 0.075 0 0.178 0.046 0.346 0.126 0.492l-0.003-0.005c0.049 0.060 0.112 0.107 0.184 0.136l0.003 0.001c0.076 0.029 0.16 0.040 0.243 0.031 0.12 0.009 0.24-0.024 0.333-0.091 0.072-0.060 0.123-0.145 0.14-0.241l0-0.002c0.022-0.133 0.032-0.267 0.029-0.401v-0.406h0.94v0.371c0.002 0.029 0.003 0.062 0.003 0.096 0 0.357-0.124 0.685-0.331 0.944l0.002-0.003c-0.215 0.245-0.583 0.367-1.124 0.367s-0.949-0.131-1.181-0.403zM34.501 15.699c-0.237-0.257-0.356-0.631-0.356-1.127v-1.736c0-0.49 0.119-0.861 0.356-1.113s0.634-0.377 1.191-0.376c0.553 0 0.947 0.126 1.185 0.376 0.238 0.252 0.358 0.623 0.358 1.113v1.736c0 0.49-0.121 0.866-0.362 1.125s-0.634 0.387-1.181 0.387-0.951-0.131-1.191-0.386zM36.129 15.282c0.085-0.161 0.124-0.337 0.113-0.514v-2.126c0.001-0.017 0.002-0.036 0.002-0.056 0-0.164-0.042-0.318-0.115-0.452l0.002 0.005c-0.050-0.062-0.114-0.109-0.188-0.138l-0.003-0.001c-0.055-0.021-0.118-0.034-0.184-0.034-0.023 0-0.045 0.001-0.067 0.004l0.003-0c-0.019-0.002-0.041-0.004-0.063-0.004-0.067 0-0.131 0.012-0.19 0.035l0.004-0.001c-0.078 0.029-0.143 0.076-0.193 0.137l-0.001 0.001c-0.086 0.157-0.125 0.33-0.113 0.503v2.136c-0.012 0.177 0.027 0.353 0.113 0.514 0.055 0.054 0.122 0.097 0.198 0.127 0.072 0.029 0.155 0.046 0.241 0.046s0.17-0.017 0.246-0.047l-0.004 0.002c0.076-0.030 0.143-0.074 0.198-0.127v-0.010zM38.365 11.398h1.011l0.761 3.203 0.778-3.203h0.985l0.099 4.623h-0.728l-0.078-3.213-0.751 3.213h-0.583l-0.778-3.225-0.072 3.225h-0.735l0.091-4.623zM43.133 11.398h1.576c0.907 0 1.362 0.438 1.362 1.313 0 0.838-0.478 1.257-1.434 1.256h-0.537v2.055h-0.973l0.006-4.623zM44.479 13.374c0.096 0.010 0.194 0.003 0.286-0.023 0.093-0.025 0.177-0.067 0.249-0.123 0.090-0.122 0.144-0.276 0.144-0.442 0-0.028-0.002-0.056-0.005-0.083l0 0.003c0.001-0.016 0.001-0.035 0.001-0.053 0-0.13-0.017-0.257-0.050-0.377l0.002 0.010c-0.016-0.049-0.040-0.092-0.072-0.127l0 0c-0.034-0.038-0.075-0.069-0.121-0.092l-0.002-0.001c-0.113-0.047-0.244-0.075-0.382-0.075-0.019 0-0.037 0.001-0.055 0.002l0.003-0h-0.377v1.382h0.377zM47.474 11.398h1.045l1.072 4.623h-0.907l-0.211-1.066h-0.932l-0.218 1.066h-0.92l1.072-4.623zM48.367 14.419l-0.364-1.941-0.364 1.941h0.727zM50.456 11.398h0.681l1.303 2.637v-2.637h0.808v4.623h-0.648l-1.311-2.753v2.753h-0.834l0.002-4.623zM55.139 14.258l-1.083-2.854h0.913l0.661 1.833 0.621-1.833h0.893l-1.070 2.854v1.762h-0.934v-1.762zM32.090 18.042v0.242h-0.794v1.878h-0.332v-1.878h-0.798v-0.242h1.924zM34.578 20.162h-0.257c-0.002 0-0.004 0-0.007 0-0.024 0-0.047-0.008-0.065-0.020l0 0c-0.019-0.012-0.033-0.028-0.043-0.048l-0-0.001-0.23-0.503h-1.101l-0.23 0.503c-0.007 0.022-0.019 0.042-0.034 0.057v0c-0.019 0.013-0.042 0.020-0.066 0.020-0.002 0-0.004-0-0.007-0h-0.257l0.973-2.12h0.338l0.985 2.111zM32.967 19.375h0.918l-0.389-0.863c-0.025-0.054-0.050-0.121-0.070-0.189l-0.003-0.011c-0.014 0.040-0.025 0.079-0.037 0.113l-0.035 0.089-0.385 0.861zM36.255 19.954c0.061 0.003 0.122 0.003 0.183 0 0.053-0.005 0.105-0.013 0.156-0.025 0.056-0.012 0.103-0.025 0.148-0.041l-0.008 0.003c0.043-0.015 0.086-0.034 0.13-0.053v-0.477h-0.389c-0.001 0-0.003 0-0.005 0-0.008 0-0.017-0.001-0.024-0.004l0.001 0c-0.009-0.003-0.017-0.008-0.024-0.013l0 0c-0.006-0.005-0.011-0.010-0.015-0.017l-0-0c-0.003-0.006-0.005-0.012-0.005-0.019 0-0.001 0-0.002 0-0.002v0-0.163h0.755v0.813c-0.118 0.074-0.255 0.133-0.4 0.171l-0.010 0.002c-0.080 0.020-0.161 0.034-0.243 0.043-0.085 0.009-0.184 0.014-0.284 0.014-0 0-0 0-0 0v0c-0.003 0-0.007 0-0.011 0-0.172 0-0.336-0.029-0.489-0.083l0.010 0.003c-0.15-0.052-0.279-0.127-0.391-0.223l0.002 0.001c-0.104-0.092-0.189-0.204-0.249-0.33l-0.003-0.006c-0.056-0.125-0.089-0.272-0.089-0.426 0-0.005 0-0.010 0-0.015v0.001c-0-0.004-0-0.009-0-0.013 0-0.155 0.032-0.303 0.090-0.437l-0.003 0.007c0.056-0.126 0.142-0.24 0.251-0.336 0.111-0.095 0.243-0.17 0.389-0.22 0.167-0.054 0.344-0.081 0.522-0.079 0.091 0 0.181 0.006 0.27 0.018 0.079 0.011 0.157 0.029 0.231 0.054 0.069 0.022 0.134 0.050 0.194 0.084s0.117 0.070 0.17 0.111l-0.093 0.131c-0.008 0.012-0.019 0.022-0.032 0.028l-0 0c-0.013 0.007-0.028 0.011-0.044 0.011h-0c-0.022-0.001-0.043-0.007-0.061-0.017l0.001 0c-0.039-0.019-0.070-0.035-0.1-0.053l0.005 0.003c-0.037-0.020-0.080-0.040-0.125-0.055l-0.006-0.002c-0.050-0.018-0.11-0.034-0.171-0.046l-0.008-0.001c-0.070-0.012-0.151-0.018-0.234-0.018-0.005 0-0.009 0-0.014 0h0.001c-0.003-0-0.008-0-0.012-0-0.13 0-0.255 0.022-0.372 0.061l0.008-0.002c-0.111 0.038-0.206 0.096-0.286 0.169l0.001-0.001c-0.081 0.076-0.143 0.166-0.182 0.263-0.041 0.105-0.065 0.227-0.065 0.354s0.024 0.249 0.068 0.36l-0.002-0.007c0.043 0.099 0.109 0.19 0.195 0.267 0.080 0.073 0.177 0.13 0.284 0.168 0.124 0.037 0.255 0.051 0.385 0.042zM39.357 19.921h1.063v0.242h-1.387v-2.12h0.333l-0.008 1.878zM41.524 20.162h-0.333v-2.12h0.333v2.12zM42.761 18.052c0.020 0.010 0.037 0.023 0.051 0.039l0 0 1.422 1.598c-0.001-0.011-0.001-0.024-0.001-0.038s0.001-0.026 0.002-0.039l-0 0.002v-1.58h0.29v2.129h-0.167c-0.003 0-0.007 0-0.011 0-0.022 0-0.043-0.005-0.062-0.013l0.001 0c-0.020-0.011-0.038-0.024-0.052-0.040l-0-0-1.42-1.597v1.649h-0.278v-2.121h0.173c0.019 0 0.038 0.003 0.055 0.010zM46.974 18.042v0.233h-1.179v0.7h0.955v0.225h-0.955v0.723h1.179v0.233h-1.522v-2.115h1.522zM12.111 4.948l14.773 3.619v12.683l-14.773-3.617v-12.686zM11.164 3.867v14.382l16.666 4.085v-14.38l-16.666-4.086z"></path>
<path fill="#8e8f99" style="fill: var(--color1, #8e8f99)" d="M20.096 29.010l-16.667-4.088v-14.381l16.667 4.086v14.383z"></path>
<path fill="#8e8f99" style="fill: var(--color1, #8e8f99)" d="M11.44 4.785l14.58 3.574-6.2 5.352-14.582-3.576 6.202-5.35zM11.164 3.867l-7.735 6.674 16.667 4.086 7.734-6.674-16.666-4.086zM21.034 28.2l6.795-5.865-6.796-1.667v7.533z"></path>
</symbol>
<symbol id="icon-Customer1" viewBox="0 0 28 32">
<path fill="#8e8f99" style="fill: var(--color1, #8e8f99)" d="M4.085 0l4.771 4.545-8.857-0.004v22.053h23.149v-8.432l4.766 4.541v-22.703h-23.83zM22.939 17.629l-13.528-12.889h13.528v12.889zM18.739 23.368h-15.076v-14.832h1.066v13.828h14.011v1.005zM6.67 30.681l-0.562-1.156h-0.464l0.814 1.529v0.891h0.42v-0.892l0.815-1.529h-0.462l-0.562 1.155zM8.741 29.525h0.099l0.914 2.42h-0.438l-0.196-0.566h-0.937l-0.195 0.566h-0.437l0.911-2.42h0.279zM8.297 31.048h0.709l-0.354-1.027-0.354 1.027zM11.222 30.646c-0.007-0.008-0.024-0.030-0.041-0.052l-0.011-0.015c-0.054-0.069-0.102-0.147-0.142-0.23l-0.003-0.008c-0.032-0.070-0.051-0.153-0.051-0.239 0-0 0-0 0-0.001v0c0-0.126 0.026-0.234 0.078-0.325s0.128-0.162 0.218-0.208l0.003-0.001c0.095-0.050 0.207-0.075 0.334-0.075 0.123 0 0.229 0.025 0.318 0.075 0.168 0.089 0.281 0.263 0.281 0.463 0 0.075-0.016 0.146-0.044 0.21l0.001-0.003c-0.030 0.067-0.069 0.124-0.116 0.173l0-0c-0.051 0.054-0.106 0.103-0.165 0.146l-0.003 0.002-0.168 0.123 0.479 0.565c0.066-0.126 0.104-0.276 0.104-0.435 0-0.006-0-0.012-0-0.018v0.001h0.346c0 0.118-0.012 0.229-0.035 0.334-0.032 0.152-0.094 0.287-0.179 0.403l0.002-0.003 0.354 0.419h-0.463l-0.141-0.165c-0.071 0.055-0.154 0.101-0.242 0.134l-0.007 0.002c-0.109 0.040-0.235 0.063-0.367 0.063-0.003 0-0.006 0-0.009-0h0c-0.161 0-0.3-0.029-0.417-0.088-0.113-0.055-0.206-0.138-0.271-0.24l-0.002-0.003c-0.060-0.098-0.095-0.216-0.095-0.343 0-0.004 0-0.008 0-0.012v0.001c0-0.099 0.020-0.185 0.061-0.259 0.042-0.076 0.097-0.146 0.168-0.21 0.066-0.059 0.14-0.118 0.225-0.178zM11.421 30.89l-0.050 0.036c-0.051 0.039-0.094 0.085-0.13 0.136l-0.001 0.002c-0.043 0.063-0.068 0.14-0.068 0.224 0 0.067 0.017 0.131 0.046 0.187l-0.001-0.002c0.032 0.058 0.078 0.105 0.133 0.137l0.002 0.001c0.060 0.032 0.13 0.051 0.205 0.051 0.004 0 0.009-0 0.013-0h-0.001c0.092 0 0.181-0.020 0.268-0.061 0.047-0.023 0.087-0.049 0.124-0.078l-0.002 0.001-0.538-0.633zM11.516 30.448l0.148-0.099c0.059-0.036 0.109-0.082 0.149-0.135l0.001-0.001c0.028-0.045 0.045-0.1 0.045-0.159 0-0.004-0-0.008-0-0.012l0 0.001c-0.004-0.13-0.111-0.233-0.241-0.233-0.005 0-0.010 0-0.014 0l0.001-0c-0.002-0-0.005-0-0.007-0-0.099 0-0.184 0.058-0.223 0.142l-0.001 0.002c-0.018 0.040-0.029 0.088-0.029 0.137 0 0.058 0.014 0.113 0.040 0.161l-0.001-0.002c0.025 0.052 0.060 0.107 0.105 0.165l0.027 0.035zM15.751 31.158h-0.416c-0.009 0.099-0.037 0.19-0.078 0.272l0.002-0.004c-0.038 0.072-0.096 0.128-0.166 0.164l-0.002 0.001c-0.077 0.036-0.167 0.057-0.262 0.057-0.009 0-0.018-0-0.027-0.001l0.001 0c-0.004 0-0.009 0-0.014 0-0.087 0-0.169-0.022-0.24-0.060l0.003 0.001c-0.071-0.040-0.13-0.096-0.172-0.163l-0.001-0.002c-0.045-0.073-0.079-0.158-0.098-0.249l-0.001-0.005c-0.020-0.096-0.032-0.207-0.032-0.32 0-0.004 0-0.009 0-0.013v0.001-0.204c0-0.129 0.012-0.243 0.035-0.343s0.060-0.185 0.108-0.254c0.045-0.066 0.105-0.119 0.176-0.155l0.003-0.001c0.069-0.034 0.15-0.053 0.236-0.053 0.005 0 0.009 0 0.014 0h-0.001c0.116 0 0.21 0.020 0.283 0.060s0.126 0.095 0.163 0.17c0.037 0.074 0.062 0.163 0.073 0.267h0.415c-0.015-0.16-0.063-0.307-0.139-0.435l0.003 0.005c-0.074-0.125-0.179-0.226-0.305-0.292l-0.004-0.002c-0.133-0.068-0.291-0.107-0.457-0.107-0.011 0-0.022 0-0.033 0l0.002-0c-0.152 0-0.289 0.027-0.411 0.080s-0.225 0.129-0.311 0.232c-0.087 0.101-0.155 0.221-0.197 0.353l-0.002 0.007c-0.046 0.14-0.068 0.298-0.068 0.472v0.202c0 0.174 0.022 0.331 0.067 0.472s0.111 0.261 0.196 0.361c0.085 0.099 0.188 0.175 0.307 0.229 0.12 0.053 0.255 0.080 0.404 0.080 0.195 0 0.361-0.035 0.497-0.106s0.242-0.168 0.317-0.291c0.075-0.124 0.12-0.266 0.133-0.424zM18.059 30.802v-0.133c0-0.182-0.024-0.347-0.073-0.49-0.045-0.143-0.115-0.267-0.206-0.373l0.001 0.001c-0.086-0.1-0.192-0.179-0.312-0.232l-0.006-0.002c-0.123-0.054-0.259-0.082-0.409-0.082-0.148 0-0.285 0.027-0.407 0.082-0.123 0.053-0.228 0.131-0.318 0.234-0.088 0.102-0.157 0.226-0.206 0.371-0.047 0.14-0.074 0.301-0.074 0.468 0 0.008 0 0.015 0 0.023v-0.001 0.133c0 0.183 0.024 0.347 0.074 0.492 0.048 0.143 0.119 0.266 0.21 0.372l-0.001-0.001c0.090 0.102 0.196 0.18 0.317 0.235 0.123 0.053 0.259 0.080 0.408 0.080s0.286-0.027 0.409-0.080c0.123-0.054 0.229-0.133 0.316-0.235 0.088-0.102 0.157-0.225 0.204-0.37s0.072-0.309 0.072-0.492zM17.642 30.666v0.136c0 0.136-0.014 0.255-0.040 0.36-0.023 0.1-0.062 0.189-0.115 0.267l0.002-0.003c-0.047 0.068-0.108 0.122-0.18 0.16l-0.003 0.001c-0.069 0.034-0.151 0.053-0.237 0.053-0.004 0-0.008-0-0.012-0h0.001c-0.003 0-0.007 0-0.011 0-0.086 0-0.167-0.020-0.239-0.055l0.003 0.001c-0.075-0.040-0.137-0.094-0.185-0.16l-0.001-0.002c-0.052-0.076-0.092-0.164-0.115-0.259l-0.001-0.005c-0.026-0.102-0.040-0.22-0.040-0.341 0-0.007 0-0.013 0-0.020v0.001-0.136c0-0.135 0.014-0.254 0.040-0.357s0.065-0.191 0.115-0.261c0.047-0.067 0.109-0.121 0.181-0.158l0.003-0.001c0.069-0.035 0.151-0.055 0.237-0.055 0.003 0 0.007 0 0.010 0h-0c0.092 0 0.174 0.018 0.248 0.054s0.134 0.088 0.184 0.16c0.051 0.069 0.090 0.157 0.115 0.261 0.027 0.104 0.040 0.223 0.040 0.357z"></path>
</symbol>
<symbol id="icon-Customer2" viewBox="0 0 25 32">
<path fill="#8e8f99" style="fill: var(--color1, #8e8f99)" d="M10.532 1.806h-0.084c-0.129-0.008-0.258-0.011-0.388-0.014h-0.28c-0.244 0-0.494 0.006-0.741 0.018-0.008-0.001-0.018-0.001-0.028-0.001s-0.020 0-0.029 0.001l0.001-0c-2.376 0.138-4.582 0.733-6.576 1.696l0.104-0.045-0.266 0.128v13.626l0.623-0.212c0.546-0.188 1.129-0.357 1.731-0.513 1.488-0.398 3.202-0.638 4.967-0.661l0.014-0v1.79c-0.223 0.001-0.439 0.007-0.655 0.018h-0.052c-1.399 0.079-2.709 0.289-3.971 0.619l0.139-0.031c-1.734 0.441-3.254 1.050-4.666 1.83l0.1-0.051v-17.475c1.379-0.82 2.975-1.488 4.665-1.921l0.127-0.028c1.353-0.364 2.907-0.576 4.51-0.582h0.267c0.314 0.008 0.622 0.022 0.91 0.044 0.829 0.060 1.597 0.187 2.339 0.378l-0.090-0.020v1.762c-0.628-0.154-1.373-0.271-2.134-0.326l-0.045-0.003-0.044-0.004c-0.152-0.013-0.304-0.026-0.446-0.026zM13.633 3.607c0.391 0.030 0.796 0.044 1.205 0.044 1.689-0.007 3.324-0.228 4.881-0.639l-0.135 0.030c1.734-0.442 3.252-1.052 4.665-1.831l-0.101 0.051v17.163c-1.379 0.819-2.975 1.487-4.664 1.921l-0.127 0.028c-1.353 0.363-2.908 0.574-4.511 0.581h-0.004c-0.033 0-0.072 0-0.111 0-1.177 0-2.319-0.147-3.409-0.425l0.095 0.021v-17.275c0.265 0.062 0.537 0.118 0.814 0.164 0.455 0.077 0.934 0.133 1.401 0.167zM22.367 3.74l-0.623 0.209c-0.572 0.193-1.151 0.365-1.731 0.518-1.551 0.415-3.332 0.657-5.169 0.663h-0.004c-0.406 0-0.78-0.011-1.141-0.034l-0.497-0.033v14.017l0.426 0.037c0.395 0.035 0.803 0.052 1.214 0.052 1.45-0.006 2.853-0.198 4.189-0.553l-0.116 0.026c1.221-0.31 2.281-0.702 3.285-1.189l-0.102 0.044 0.266-0.128v-13.63z"></path>
<path fill="#8e8f99" style="fill: var(--color1, #8e8f99)" d="M1.684 25.977c-0.167-0.173-0.401-0.281-0.661-0.281-0.011 0-0.023 0-0.034 0.001l0.002-0c-0.004-0-0.009-0-0.014-0-0.139 0-0.272 0.028-0.393 0.078l0.007-0.003c-0.237 0.095-0.42 0.28-0.51 0.512l-0.002 0.006c-0.049 0.123-0.073 0.254-0.071 0.386v2.335c-0.006 0.164 0.026 0.328 0.092 0.479 0.055 0.12 0.135 0.226 0.234 0.313 0.093 0.078 0.202 0.135 0.32 0.166 0.114 0.031 0.231 0.048 0.349 0.048 0.13 0.001 0.258-0.026 0.377-0.081 0.351-0.156 0.591-0.5 0.591-0.901v-0.261h-0.611v0.208c0 0.004 0 0.009 0 0.014 0 0.070-0.013 0.136-0.037 0.198l0.001-0.004c-0.021 0.052-0.051 0.095-0.089 0.132l-0 0c-0.070 0.054-0.159 0.088-0.255 0.089h-0c-0.011 0.001-0.023 0.002-0.036 0.002-0.103 0-0.194-0.050-0.25-0.127l-0.001-0.001c-0.051-0.082-0.082-0.182-0.082-0.289 0-0.008 0-0.016 0.001-0.024l-0 0.001v-2.177c-0.004-0.121 0.022-0.24 0.075-0.349 0.056-0.087 0.153-0.143 0.262-0.143 0.013 0 0.025 0.001 0.038 0.002l-0.001-0c0.003-0 0.007-0 0.012-0 0.107 0 0.201 0.052 0.26 0.131l0.001 0.001c0.063 0.082 0.101 0.187 0.101 0.3 0 0.005-0 0.009-0 0.014v-0.001 0.202h0.604v-0.238c0-0.003 0-0.007 0-0.011 0-0.143-0.027-0.28-0.077-0.405l0.003 0.007c-0.048-0.128-0.117-0.237-0.205-0.329l0 0zM5.31 25.951c-0.186-0.158-0.429-0.255-0.694-0.257h-0c-0.124 0-0.248 0.023-0.364 0.066-0.252 0.090-0.451 0.276-0.557 0.511l-0.002 0.006c-0.062 0.142-0.092 0.297-0.089 0.452v2.239c-0.004 0.158 0.026 0.314 0.089 0.458 0.055 0.121 0.135 0.228 0.236 0.313 0.094 0.086 0.203 0.154 0.322 0.197 0.117 0.043 0.24 0.065 0.364 0.066 0.267-0.001 0.51-0.1 0.695-0.264l-0.001 0.001c0.097-0.087 0.176-0.194 0.23-0.313 0.063-0.144 0.093-0.301 0.089-0.458v-2.239c0-0.006 0-0.013 0-0.020 0-0.156-0.033-0.305-0.092-0.439l0.003 0.007c-0.057-0.128-0.135-0.237-0.23-0.327l-0-0zM5.025 28.969c0.001 0.010 0.002 0.023 0.002 0.035 0 0.114-0.047 0.216-0.123 0.289l-0 0c-0.077 0.065-0.178 0.105-0.287 0.105s-0.21-0.040-0.288-0.105l0.001 0.001c-0.076-0.073-0.123-0.175-0.123-0.289 0-0.012 0.001-0.025 0.002-0.037l-0 0.002v-2.239c-0.001-0.010-0.001-0.022-0.001-0.034 0-0.113 0.047-0.216 0.123-0.289l0-0c0.077-0.065 0.178-0.105 0.287-0.105s0.21 0.040 0.288 0.105l-0.001-0.001c0.076 0.073 0.123 0.175 0.123 0.289 0 0.012-0.001 0.025-0.002 0.037l0-0.002v2.24zM10.072 29.969v-4.24h-0.586l-0.771 2.244h-0.010l-0.777-2.244h-0.58v4.239h0.606v-2.578h0.011l0.593 1.823h0.302l0.598-1.823h0.010v2.578h0.606zM13.513 26.027c-0.093-0.105-0.211-0.185-0.342-0.232-0.124-0.042-0.267-0.066-0.416-0.066-0.008 0-0.016 0-0.024 0l0.001-0h-0.9v4.24h0.604v-1.656h0.311c0.189 0.009 0.376-0.031 0.545-0.116 0.139-0.078 0.251-0.188 0.329-0.32l0.002-0.004c0.070-0.113 0.117-0.238 0.138-0.369 0.021-0.133 0.033-0.287 0.033-0.444 0-0.013-0-0.027-0-0.040l0 0.002c0.006-0.203-0.014-0.407-0.059-0.606-0.043-0.153-0.12-0.284-0.223-0.39l0 0zM13.201 27.319c-0.003 0.081-0.023 0.157-0.057 0.224l0.001-0.003c-0.035 0.065-0.089 0.116-0.154 0.147l-0.002 0.001c-0.075 0.034-0.162 0.054-0.254 0.054-0.011 0-0.022-0-0.033-0.001l0.002 0h-0.276v-1.441h0.311c0.009-0 0.019-0.001 0.029-0.001 0.088 0 0.172 0.020 0.247 0.055l-0.004-0.002c0.062 0.036 0.111 0.090 0.141 0.154l0.001 0.002c0.033 0.074 0.051 0.155 0.053 0.236v0.282c0 0.098 0.006 0.201 0 0.291h-0.006zM16.374 25.729h-0.495l-0.934 4.24h0.604l0.177-0.911h0.823l0.178 0.911h0.604l-0.958-4.24zM15.817 28.481l0.297-1.537h0.011l0.295 1.537h-0.604zM20.277 28.283h-0.011l-0.912-2.554h-0.581v4.24h0.604v-2.55h0.012l0.923 2.549h0.568v-4.239h-0.604v2.554zM23.968 25.729l-0.486 1.686h-0.012l-0.486-1.686h-0.639l0.83 2.448v1.791h0.604v-1.791l0.83-2.447h-0.64zM0 31.166h0.291v0.817h0.198v-0.817h0.289v-0.167h-0.778v0.168zM2.447 30.998l-0.382 0.985h0.21l0.081-0.224h0.392l0.084 0.224h0.215l-0.391-0.985h-0.21zM2.417 31.593l0.134-0.365 0.134 0.365h-0.268zM4.866 31.62h0.228v0.127c-0.063 0.051-0.145 0.082-0.234 0.083h-0c-0.004 0-0.009 0-0.014 0-0.079 0-0.149-0.037-0.195-0.094l-0-0c-0.046-0.065-0.073-0.147-0.073-0.234 0-0.008 0-0.016 0.001-0.023l-0 0.001c0-0.219 0.095-0.329 0.283-0.329 0.006-0.001 0.014-0.001 0.021-0.001 0.097 0 0.178 0.067 0.201 0.157l0 0.001 0.194-0.038c-0.042-0.192-0.18-0.289-0.417-0.289-0.004-0-0.008-0-0.013-0-0.127 0-0.244 0.048-0.331 0.127l0-0c-0.088 0.087-0.143 0.208-0.143 0.342 0 0.013 0 0.026 0.002 0.038l-0-0.002c-0 0.007-0 0.015-0 0.023 0 0.132 0.048 0.254 0.127 0.347l-0.001-0.001c0.087 0.090 0.209 0.146 0.343 0.146 0.011 0 0.021-0 0.032-0.001l-0.001 0c0.005 0 0.010 0 0.016 0 0.155 0 0.296-0.060 0.402-0.157l-0 0v-0.388h-0.426v0.166zM7.337 30.998h-0.199v0.985h0.689v-0.167h-0.49v-0.817zM9.426 30.998h-0.199v0.985h0.199v-0.985zM11.469 31.655l-0.404-0.657h-0.193v0.985h0.185v-0.643l0.396 0.643h0.198v-0.985h-0.182v0.658zM13.315 31.549h0.49v-0.167h-0.49v-0.215h0.527v-0.168h-0.727v0.985h0.747v-0.167h-0.548v-0.266zM17.792 31.386h-0.388v-0.388h-0.197v0.984h0.197v-0.431h0.388v0.431h0.198v-0.985h-0.198v0.388zM19.649 31.549h0.492v-0.167h-0.492v-0.215h0.529v-0.168h-0.726v0.985h0.746v-0.167h-0.548v-0.266zM22.168 31.55c0.171-0.027 0.258-0.118 0.258-0.274 0.001-0.008 0.002-0.018 0.002-0.028 0-0.079-0.038-0.148-0.098-0.191l-0.001-0c-0.073-0.037-0.159-0.059-0.25-0.059-0.014 0-0.027 0-0.040 0.001l0.002-0h-0.417v0.984h0.198v-0.412h0.039c0.005-0 0.010-0 0.016-0 0.039 0 0.076 0.008 0.109 0.023l-0.002-0.001c0.029 0.018 0.053 0.042 0.070 0.072l0.215 0.313h0.236l-0.12-0.192c-0.054-0.096-0.128-0.175-0.215-0.235l-0.002-0.002zM21.969 31.413h-0.146v-0.247h0.156c0.012-0.001 0.027-0.002 0.042-0.002 0.057 0 0.111 0.009 0.163 0.026l-0.004-0.001c0.026 0.024 0.043 0.058 0.043 0.096 0 0.042-0.020 0.080-0.052 0.104l-0 0c-0.049 0.016-0.106 0.025-0.164 0.025-0.013 0-0.026-0-0.039-0.001l0.002 0zM24.068 31.549h0.49v-0.167h-0.49v-0.215h0.529v-0.168h-0.729v0.985h0.747v-0.167h-0.548v-0.266z"></path>
</symbol>
<symbol id="icon-Customer3" viewBox="0 0 34 32">
<path fill="#8e8f99" style="fill: var(--color1, #8e8f99)" d="M5.315 31.394c0.013 0 0.025 0.003 0.036 0.008 0.012 0.004 0.022 0.010 0.031 0.018l-0-0 0.172 0.162c-0.135 0.131-0.296 0.235-0.474 0.304l-0.010 0.003c-0.219 0.078-0.453 0.116-0.688 0.11-0.011 0-0.023 0-0.036 0-0.219 0-0.429-0.038-0.624-0.107l0.013 0.004c-0.188-0.067-0.35-0.166-0.487-0.291l0.001 0.001c-0.133-0.123-0.239-0.273-0.311-0.441l-0.003-0.008c-0.070-0.165-0.11-0.358-0.11-0.559 0-0.006 0-0.012 0-0.018v0.001c-0-0.006-0-0.012-0-0.019 0-0.203 0.044-0.395 0.122-0.568l-0.003 0.009c0.075-0.167 0.189-0.32 0.334-0.449 0.146-0.125 0.318-0.225 0.506-0.29l0.011-0.003c0.192-0.065 0.414-0.103 0.644-0.103 0.008 0 0.015 0 0.023 0h-0.001c0.211-0.004 0.421 0.028 0.618 0.094 0.171 0.064 0.328 0.151 0.464 0.26l-0.144 0.173c-0.010 0.012-0.022 0.023-0.036 0.031l-0.001 0c-0.014 0.009-0.032 0.014-0.050 0.014-0.003 0-0.006-0-0.009-0l0 0c-0.023-0.001-0.045-0.008-0.063-0.019l0.001 0-0.078-0.046-0.107-0.059c-0.099-0.048-0.213-0.084-0.333-0.103l-0.007-0.001c-0.071-0.012-0.152-0.018-0.235-0.018-0.008 0-0.015 0-0.023 0h0.001c-0.005-0-0.011-0-0.017-0-0.165 0-0.324 0.028-0.471 0.080l0.010-0.003c-0.145 0.050-0.269 0.124-0.376 0.218l0.001-0.001c-0.108 0.101-0.19 0.219-0.244 0.347-0.056 0.13-0.088 0.282-0.088 0.441 0 0.005 0 0.011 0 0.016v-0.001c-0 0.005-0 0.011-0 0.017 0 0.161 0.032 0.314 0.091 0.454l-0.003-0.008c0.111 0.263 0.325 0.465 0.59 0.556l0.007 0.002c0.14 0.050 0.291 0.075 0.443 0.073 0.088 0.002 0.176-0.004 0.263-0.015 0.219-0.022 0.414-0.108 0.571-0.239l-0.002 0.001c0.022-0.018 0.051-0.029 0.082-0.030h0zM10.291 30.579c0.003 0.195-0.037 0.39-0.116 0.573-0.077 0.176-0.187 0.324-0.323 0.444l-0.001 0.001c-0.144 0.126-0.317 0.226-0.509 0.291-0.196 0.065-0.421 0.103-0.655 0.103s-0.459-0.038-0.67-0.107l0.015 0.004c-0.196-0.068-0.365-0.168-0.509-0.294l0.002 0.002c-0.137-0.122-0.248-0.272-0.324-0.441l-0.003-0.008c-0.074-0.169-0.117-0.366-0.117-0.574s0.043-0.404 0.12-0.583l-0.004 0.010c0.073-0.167 0.185-0.32 0.328-0.451 0.144-0.123 0.317-0.219 0.507-0.281 0.421-0.14 0.888-0.14 1.31 0 0.191 0.066 0.364 0.165 0.508 0.293 0.272 0.243 0.442 0.594 0.442 0.985 0 0.012-0 0.024-0 0.036l0-0.002zM9.839 30.579c0.004-0.156-0.023-0.312-0.081-0.46-0.105-0.267-0.32-0.471-0.588-0.559l-0.007-0.002c-0.142-0.048-0.306-0.076-0.476-0.076s-0.334 0.028-0.487 0.079l0.011-0.003c-0.141 0.049-0.263 0.124-0.365 0.218l0.001-0.001c-0.1 0.093-0.179 0.208-0.23 0.337l-0.002 0.006c-0.109 0.3-0.109 0.621 0 0.921 0.048 0.127 0.128 0.244 0.233 0.344 0.101 0.094 0.226 0.168 0.365 0.215 0.307 0.098 0.645 0.098 0.952 0 0.138-0.048 0.263-0.122 0.364-0.215 0.104-0.1 0.182-0.218 0.231-0.344 0.058-0.148 0.086-0.304 0.081-0.46zM13.687 31.063l0.044 0.103c0.017-0.037 0.033-0.070 0.050-0.103 0.016-0.035 0.035-0.069 0.056-0.101l1.101-1.709c0.022-0.030 0.041-0.048 0.062-0.055 0.022-0.006 0.047-0.009 0.074-0.009 0.006 0 0.012 0 0.018 0l-0.001-0h0.325v2.781h-0.386v-2.131c-0.001-0.014-0.002-0.031-0.002-0.048s0.001-0.034 0.002-0.050l-0 0.002-1.107 1.733c-0.015 0.027-0.037 0.049-0.064 0.063l-0.001 0c-0.027 0.015-0.059 0.023-0.093 0.023-0 0-0.001 0-0.001 0h-0.062c-0.001 0-0.002 0-0.002 0-0.034 0-0.066-0.009-0.094-0.024l0.001 0c-0.027-0.014-0.049-0.036-0.064-0.062l-0-0.001-1.139-1.745v2.232h-0.373v-2.775h0.325c0.004-0 0.009-0 0.014-0 0.027 0 0.053 0.004 0.078 0.010l-0.002-0c0.026 0.011 0.047 0.029 0.060 0.052l0 0.001 1.124 1.712c0.023 0.031 0.041 0.066 0.057 0.1zM17.83 30.924v1.041h-0.431v-2.777h0.96c0.182-0.003 0.363 0.017 0.537 0.061 0.14 0.034 0.268 0.092 0.379 0.172 0.092 0.072 0.165 0.163 0.214 0.269l0.002 0.004c0.051 0.113 0.076 0.233 0.073 0.355 0 0.004 0 0.008 0 0.012 0 0.253-0.122 0.478-0.31 0.619l-0.002 0.001c-0.109 0.082-0.236 0.145-0.375 0.182l-0.008 0.002c-0.167 0.045-0.343 0.067-0.518 0.064l-0.521-0.008zM17.83 30.626h0.521c0.113 0.001 0.226-0.013 0.333-0.043 0.093-0.026 0.173-0.067 0.244-0.121l-0.002 0.001c0.121-0.097 0.198-0.245 0.198-0.411 0-0.002 0-0.005-0-0.007v0c0.001-0.008 0.001-0.018 0.001-0.028 0-0.072-0.016-0.14-0.046-0.201l0.001 0.003c-0.036-0.076-0.087-0.139-0.15-0.189l-0.001-0.001c-0.144-0.095-0.321-0.152-0.511-0.152-0.024 0-0.048 0.001-0.071 0.003l0.003-0h-0.521v1.145zM23.621 31.97h-0.341c-0.002 0-0.004 0-0.006 0-0.033 0-0.063-0.010-0.089-0.026l0.001 0c-0.024-0.016-0.043-0.038-0.056-0.063l-0-0.001-0.293-0.672h-1.472l-0.304 0.671c-0.012 0.026-0.031 0.047-0.053 0.062l-0.001 0c-0.026 0.018-0.058 0.028-0.092 0.028-0.002 0-0.003-0-0.005-0h-0.34l1.293-2.781h0.448l1.31 2.781zM21.488 30.937h1.215l-0.513-1.132c-0.035-0.072-0.068-0.159-0.094-0.249l-0.003-0.013-0.049 0.145c-0.016 0.044-0.032 0.084-0.047 0.117l-0.509 1.132zM25.483 29.201c0.025 0.012 0.047 0.029 0.064 0.050l0 0 1.886 2.096v-2.159h0.386v2.781h-0.215c-0.003 0-0.006 0-0.009 0-0.029 0-0.057-0.006-0.082-0.016l0.001 0.001c-0.027-0.014-0.049-0.031-0.069-0.052l-0-0-1.883-2.095c0.001 0.014 0.002 0.031 0.002 0.048s-0.001 0.034-0.002 0.050l0-0.002v2.067h-0.386v-2.781h0.228c0.027-0.001 0.053 0.003 0.078 0.012zM30.993 30.864v1.104h-0.431v-1.104l-1.191-1.675h0.386c0.003-0 0.006-0 0.010-0 0.031 0 0.059 0.009 0.084 0.024l-0.001-0c0.023 0.018 0.043 0.039 0.058 0.062l0.745 1.081c0.051 0.071 0.095 0.152 0.129 0.239l0.003 0.007 0.056-0.119c0.021-0.044 0.046-0.086 0.073-0.127l0.735-1.088c0.016-0.023 0.034-0.042 0.055-0.059l0.001-0c0.024-0.017 0.053-0.027 0.085-0.027 0.003 0 0.005 0 0.008 0l-0-0h0.39l-1.194 1.683zM13.474 24.521c0.187 0.020 0.377 0.037 0.569 0.052 2.907-1.111 5.366-2.929 7.070-5.229s2.577-4.975 2.51-7.696l-3.203-2.737c0.651 2.896 0.347 5.89-0.88 8.648-1.227 2.756-3.327 5.167-6.066 6.962z"></path>
<path fill="#8e8f99" style="fill: var(--color1, #8e8f99)" d="M12.329 24.393l0.086 0.015c2.927-1.789 5.159-4.286 6.406-7.17s1.454-6.021 0.592-9.006l-4.564-3.899c1.846 3.205 2.589 6.791 2.142 10.341s-2.064 6.922-4.663 9.719zM27.805 14.862c-0.775 2.989-2.658 5.685-5.369 7.688-0.739 0.553-1.574 1.073-2.453 1.519l-0.098 0.045c2.207-0.554 4.236-1.534 5.93-2.864s3.008-2.975 3.84-4.808l-1.85-1.58z"></path>
<path fill="#8e8f99" style="fill: var(--color1, #8e8f99)" d="M27.079 14.422l-2.635-2.251c-0.051 2.567-0.905 5.075-2.473 7.264s-3.796 3.98-6.448 5.185h0.013c0.591 0 1.182-0.030 1.769-0.090 2.48-0.865 4.67-2.24 6.375-4.004s2.874-3.861 3.4-6.103zM12.711 2.69l-3.142-2.69c-2.81 0.928-5.227 2.558-6.934 4.68-1.708 2.121-2.627 4.631-2.635 7.206 0.010 2.843 1.131 5.604 3.184 7.842s4.92 3.828 8.15 4.518c2.883-3.001 4.571-6.71 4.819-10.587s-0.958-7.719-3.442-10.971zM34.341 14.008c-0.012-3.375-1.585-6.608-4.379-8.994-2.792-2.386-6.576-3.731-10.526-3.741-0.010-0-0.022-0-0.034-0-1.896 0-3.719 0.31-5.422 0.883l0.12-0.035 19.245 16.443c0.627-1.338 0.993-2.905 0.995-4.557v-0.001z"></path>
</symbol>
<symbol id="icon-twitter" viewBox="0 0 32 32">
<path fill="#fff" style="fill: var(--color2, #fff)" opacity="0.1" d="M32 16c0 0.006 0 0.013 0 0.021 0 4.412-1.791 8.405-4.686 11.293l-0 0c-2.888 2.895-6.881 4.686-11.293 4.686-0.007 0-0.015 0-0.022 0h0.001c-0.006 0-0.013 0-0.021 0-4.412 0-8.405-1.791-11.293-4.686l-0-0c-2.895-2.888-4.686-6.881-4.686-11.293 0-0.007 0-0.015 0-0.022v0.001c0-0.006 0-0.013 0-0.020 0-4.412 1.791-8.405 4.686-11.293l0-0c2.888-2.895 6.881-4.686 11.293-4.686 0.007 0 0.014 0 0.021 0h-0.001c0.006 0 0.013 0 0.021 0 4.412 0 8.405 1.791 11.293 4.686l0 0c2.895 2.888 4.686 6.881 4.686 11.293 0 0.007 0 0.015 0 0.022v-0.001z"></path>
<path fill="#f4f4fd" style="fill: var(--color3, #f4f4fd)" d="M25.6 10.047c-0.714 0.313-1.474 0.52-2.268 0.622 0.816-0.49 1.429-1.247 1.724-2.148l0.008-0.028c-0.718 0.434-1.555 0.764-2.446 0.944l-0.050 0.008c-0.72-0.768-1.741-1.247-2.874-1.247-2.173 0-3.935 1.762-3.935 3.935 0 0.001 0 0.002 0 0.003v-0c0 0.312 0.026 0.613 0.091 0.898-3.273-0.16-6.168-1.728-8.114-4.118-0.338 0.57-0.537 1.256-0.538 1.989v0c0 1.363 0.702 2.572 1.748 3.271-0.655-0.018-1.265-0.196-1.798-0.495l0.020 0.010v0.043c0.002 1.899 1.342 3.484 3.128 3.863l0.026 0.005c-0.32 0.087-0.67 0.13-1.032 0.13-0.018 0-0.040 0.001-0.062 0.001-0.242 0-0.478-0.025-0.706-0.072l0.023 0.004c0.51 1.558 1.957 2.704 3.678 2.742-1.329 1.047-3.027 1.679-4.872 1.679-0.003 0-0.005 0-0.008 0h0c-0.323 0-0.633-0.014-0.942-0.054 1.696 1.108 3.772 1.766 6.003 1.766 0.013 0 0.025-0 0.038-0h-0.002c7.243 0 11.203-6 11.203-11.201 0-0.174-0.006-0.342-0.014-0.509 0.779-0.562 1.434-1.24 1.955-2.015l0.018-0.028z"></path>
</symbol>
<symbol id="icon-instagram" viewBox="0 0 32 32">
<path fill="#fff" style="fill: var(--color2, #fff)" opacity="0.1" d="M32 16c0 0.006 0 0.013 0 0.021 0 4.412-1.791 8.405-4.686 11.293l-0 0c-2.888 2.895-6.881 4.686-11.293 4.686-0.007 0-0.015 0-0.022 0h0.001c-0.006 0-0.013 0-0.021 0-4.412 0-8.405-1.791-11.293-4.686l-0-0c-2.895-2.888-4.686-6.881-4.686-11.293 0-0.007 0-0.015 0-0.022v0.001c0-0.006 0-0.013 0-0.020 0-4.412 1.791-8.405 4.686-11.293l0-0c2.888-2.895 6.881-4.686 11.293-4.686 0.007 0 0.014 0 0.021 0h-0.001c0.006 0 0.013 0 0.021 0 4.412 0 8.405 1.791 11.293 4.686l0 0c2.895 2.888 4.686 6.881 4.686 11.293 0 0.007 0 0.015 0 0.022v-0.001z"></path>
<path fill="#f4f4fd" style="fill: var(--color3, #f4f4fd)" d="M25.582 12.045c-0.046-1.020-0.21-1.722-0.446-2.329-0.254-0.667-0.632-1.235-1.11-1.702l-0.001-0.001c-0.468-0.475-1.035-0.851-1.667-1.095l-0.032-0.011c-0.611-0.236-1.309-0.402-2.33-0.446-1.027-0.048-1.354-0.060-3.96-0.060s-2.934 0.011-3.958 0.056c-1.020 0.046-1.722 0.21-2.329 0.446-0.667 0.254-1.235 0.632-1.702 1.11l-0.001 0.001c-0.475 0.468-0.851 1.035-1.095 1.667l-0.011 0.032c-0.236 0.611-0.402 1.309-0.446 2.329-0.048 1.028-0.060 1.354-0.060 3.961s0.011 2.934 0.056 3.958c0.046 1.020 0.21 1.721 0.447 2.329 0.256 0.666 0.633 1.234 1.109 1.703l0.001 0.001c0.48 0.488 1.062 0.866 1.699 1.106 0.611 0.236 1.309 0.401 2.33 0.446 1.024 0.045 1.35 0.056 3.957 0.056s2.933-0.011 3.957-0.056c1.020-0.046 1.722-0.21 2.33-0.446 1.294-0.51 2.299-1.515 2.797-2.776l0.012-0.033c0.237-0.611 0.402-1.309 0.446-2.329 0.045-1.024 0.056-1.35 0.056-3.958s-0.003-2.933-0.048-3.957zM23.852 19.884c-0.041 0.938-0.198 1.444-0.33 1.782-0.331 0.84-0.983 1.492-1.802 1.815l-0.022 0.008c-0.338 0.132-0.848 0.289-1.782 0.33-1.013 0.045-1.316 0.056-3.878 0.056s-2.869-0.011-3.878-0.056c-0.938-0.042-1.444-0.198-1.782-0.33-0.432-0.161-0.801-0.405-1.102-0.715l-0.001-0.001c-0.31-0.302-0.554-0.67-0.71-1.082l-0.007-0.021c-0.131-0.338-0.288-0.848-0.33-1.782-0.045-1.013-0.056-1.317-0.056-3.878s0.011-2.87 0.056-3.878c0.041-0.938 0.198-1.444 0.33-1.782 0.154-0.416 0.398-0.795 0.72-1.103 0.303-0.31 0.671-0.554 1.083-0.709l0.021-0.007c0.337-0.131 0.847-0.288 1.781-0.33 1.013-0.045 1.317-0.056 3.878-0.056 2.566 0 2.87 0.011 3.878 0.056 0.938 0.042 1.444 0.199 1.782 0.33 0.416 0.154 0.795 0.398 1.102 0.716 0.319 0.312 0.562 0.686 0.717 1.103 0.131 0.338 0.288 0.848 0.33 1.782 0.045 1.013 0.056 1.317 0.056 3.878s-0.011 2.862-0.056 3.874z"></path>
<path fill="#f4f4fd" style="fill: var(--color3, #f4f4fd)" d="M16.035 11.070c-2.723 0.001-4.931 2.209-4.932 4.932v0c0 2.724 2.208 4.932 4.932 4.933h0c2.724-0 4.932-2.209 4.933-4.933v-0c-0.001-2.724-2.209-4.932-4.933-4.932h-0zM16.035 19.202c-1.767-0-3.199-1.433-3.199-3.2s1.433-3.2 3.2-3.2c0 0 0.001 0 0.001 0h-0c1.767 0 3.199 1.433 3.199 3.2s-1.433 3.2-3.2 3.2c-0 0-0.001 0-0.001 0h0zM22.314 10.874c0 0.009 0 0.020 0 0.030 0 0.636-0.516 1.152-1.152 1.152s-1.152-0.516-1.152-1.152c0-0.011 0-0.021 0-0.032l-0 0.002c0.017-0.623 0.526-1.122 1.152-1.122s1.135 0.499 1.152 1.12l0 0.002z"></path>
</symbol>
<symbol id="icon-Linkedin" viewBox="0 0 32 32">
<path fill="#fff" style="fill: var(--color2, #fff)" opacity="0.1" d="M32 16c0 0.006 0 0.013 0 0.021 0 4.412-1.791 8.405-4.686 11.293l-0 0c-2.888 2.895-6.881 4.686-11.293 4.686-0.007 0-0.015 0-0.022 0h0.001c-0.006 0-0.013 0-0.021 0-4.412 0-8.405-1.791-11.293-4.686l-0-0c-2.895-2.888-4.686-6.881-4.686-11.293 0-0.007 0-0.015 0-0.022v0.001c0-0.006 0-0.013 0-0.020 0-4.412 1.791-8.405 4.686-11.293l0-0c2.888-2.895 6.881-4.686 11.293-4.686 0.007 0 0.014 0 0.021 0h-0.001c0.006 0 0.013 0 0.021 0 4.412 0 8.405 1.791 11.293 4.686l0 0c2.895 2.888 4.686 6.881 4.686 11.293 0 0.007 0 0.015 0 0.022v-0.001z"></path>
<path fill="#f4f4fd" style="fill: var(--color3, #f4f4fd)" d="M25.595 25.6h0.005v-7.042c0-3.445-0.742-6.098-4.769-6.098-1.936 0-3.235 1.062-3.766 2.070h-0.056v-1.748h-3.818v12.819h3.976v-6.347c0-1.671 0.317-3.287 2.386-3.287 2.039 0 2.070 1.907 2.070 3.394v6.24h3.972zM6.717 12.782h3.981v12.818h-3.981v-12.818zM8.706 6.4c-1.273 0-2.305 1.032-2.306 2.306v0c0 1.273 1.033 2.327 2.306 2.327s2.306-1.054 2.306-2.327c-0.001-1.273-1.033-2.305-2.306-2.306h-0z"></path>
</symbol>
<symbol id="icon-Customer5" viewBox="0 0 44 32">
<path fill="#8e8f99" style="fill: var(--color1, #8e8f99)" d="M3.334 26.694c0.17 0.191 0.262 0.429 0.257 0.673 0.008 0.159-0.023 0.319-0.092 0.466s-0.174 0.278-0.307 0.384c-0.291 0.197-0.65 0.314-1.036 0.314-0.043 0-0.085-0.001-0.127-0.004l0.006 0h-2.035v-4.266h1.993c0.035-0.002 0.076-0.004 0.117-0.004 0.366 0 0.707 0.107 0.994 0.291l-0.007-0.004c0.129 0.097 0.231 0.22 0.298 0.358s0.097 0.289 0.089 0.44c0.012 0.235-0.070 0.466-0.232 0.652-0.157 0.168-0.365 0.288-0.599 0.333l-0.007 0.001c0.27 0.045 0.513 0.174 0.687 0.365zM0.947 26.050h0.852c0.193 0.013 0.385-0.037 0.541-0.141 0.062-0.050 0.112-0.114 0.145-0.186l0.001-0.003c0.025-0.055 0.039-0.118 0.039-0.185 0-0.015-0.001-0.030-0.002-0.045l0 0.002c0.001-0.011 0.001-0.023 0.001-0.036 0-0.069-0.015-0.134-0.041-0.193l0.001 0.003c-0.034-0.076-0.082-0.139-0.141-0.19l-0.001-0.001c-0.138-0.091-0.307-0.146-0.489-0.146-0.024 0-0.049 0.001-0.073 0.003l0.003-0h-0.839v1.119zM2.424 27.687c0.066-0.052 0.12-0.117 0.156-0.192l0.001-0.003c0.029-0.060 0.046-0.131 0.046-0.205 0-0.012-0-0.023-0.001-0.035l0 0.002c0.001-0.009 0.001-0.020 0.001-0.030 0-0.077-0.018-0.149-0.049-0.214l0.001 0.003c-0.038-0.079-0.093-0.145-0.159-0.196l-0.001-0.001c-0.147-0.098-0.328-0.156-0.522-0.156-0.020 0-0.039 0.001-0.059 0.002l0.003-0h-0.895v1.174h0.905c0.204 0.010 0.406-0.042 0.572-0.148zM7.408 28.529l-1.109-1.667h-0.417v1.667h-0.953v-4.266h1.805c0.039-0.003 0.084-0.004 0.13-0.004 0.424 0 0.815 0.138 1.132 0.371l-0.005-0.004c0.253 0.232 0.405 0.537 0.429 0.861s-0.080 0.644-0.295 0.904c-0.223 0.23-0.527 0.383-0.861 0.434l1.181 1.704h-1.037zM5.882 26.28h0.78c0.542 0 0.813-0.216 0.813-0.646 0.001-0.010 0.001-0.023 0.001-0.035 0-0.081-0.016-0.157-0.046-0.227l0.001 0.004c-0.037-0.087-0.089-0.161-0.155-0.221l-0-0c-0.148-0.11-0.335-0.176-0.537-0.176-0.027 0-0.053 0.001-0.080 0.003l0.003-0h-0.79l0.010 1.298zM12.621 27.67h-1.901l-0.336 0.858h-1l1.746-4.218h1.081l1.738 4.218h-1l-0.328-0.858zM12.367 27.024l-0.695-1.801-0.694 1.8h1.389zM19.146 28.529h-0.946l-2.123-2.901v2.901h-0.945v-4.266h0.945l2.122 2.918v-2.918h0.947v4.266zM24.55 27.507c-0.206 0.329-0.498 0.587-0.844 0.748l-0.012 0.005c-0.412 0.188-0.87 0.28-1.331 0.269h-1.686v-4.266h1.686c0.023-0.001 0.051-0.001 0.078-0.001 0.453 0 0.884 0.097 1.272 0.271l-0.020-0.008c0.362 0.165 0.661 0.424 0.856 0.744 0.195 0.347 0.296 0.73 0.296 1.119-0.001 0.411-0.111 0.797-0.302 1.13l0.006-0.011zM23.466 27.405c0.256-0.263 0.416-0.622 0.419-1.018v-0.001c-0.003-0.396-0.162-0.755-0.419-1.018l0 0c-0.294-0.229-0.669-0.366-1.076-0.366-0.038 0-0.076 0.001-0.114 0.004l0.005-0h-0.657v2.762h0.657c0.033 0.002 0.071 0.003 0.11 0.003 0.407 0 0.781-0.138 1.080-0.369l-0.004 0.003zM13.213 0.534s12.221 4.153 11.962 10.163v10.166s-12.211-4.156-11.958-10.166l-0.004-10.163zM36.062 18.483c2.308-1.43 4.977-2.317 7.764-2.576v-3.183c-3.211 1.114-5.935 3.134-7.764 5.758z"></path>
<path fill="#8e8f99" style="fill: var(--color1, #8e8f99)" d="M34.675 19.442c1.888-3.425 5.164-6.067 9.151-7.384v-9.17s-17.404 5.917-17.036 14.476v14.474s0.776-0.264 1.996-0.761c0-0.463 0-0.929 0.056-1.398 0.36-3.974 2.458-7.656 5.834-10.237z"></path>
<path fill="#8e8f99" style="fill: var(--color1, #8e8f99)" d="M33.020 24.819c0.103-1.095 0.318-2.101 0.637-3.060l-0.028 0.096c-2.102 2.229-3.375 4.995-3.64 7.909-0.025 0.275-0.039 0.55-0.046 0.833 1.458-0.627 2.558-1.158 3.636-1.726l-0.288 0.139c-0.208-0.889-0.328-1.91-0.328-2.958 0-0.434 0.020-0.864 0.060-1.287l-0.004 0.054zM33.712 24.871c-0.034 0.351-0.053 0.76-0.053 1.173 0 0.928 0.098 1.834 0.284 2.707l-0.015-0.085c4.755-2.561 10.097-6.518 9.891-11.302v-0.417c-3.397 0.343-6.575 1.68-9.047 3.806-0.545 1.204-0.922 2.6-1.056 4.067l-0.004 0.051z"></path>
</symbol>
<symbol id="icon-diagram1" viewBox="0 0 32 32">
<path fill="#4d5ae5" style="fill: var(--color4, #4d5ae5)" d="M14.925 14.965h1.066v4.797h-1.066v-4.797zM19.19 17.097h1.066v2.665h-1.066v-2.665zM10.661 18.696h1.066v1.066h-1.066v-1.066zM7.463 18.163h1.066v1.599h-1.066v-1.599z"></path>
<path fill="#2e2f42" style="fill: var(--color5, #2e2f42)" d="M1.599 28.291h25.587c0 0 0 0 0 0 0.883 0 1.599-0.716 1.599-1.599v0-2.133c0-0.883-0.716-1.599-1.599-1.599-0 0-0 0-0.001 0h-0.533v-13.293l3.028-2.868c0.207 0.105 0.452 0.166 0.711 0.166 0.888 0 1.608-0.72 1.608-1.608s-0.72-1.608-1.608-1.608c-0.888 0-1.608 0.72-1.608 1.608 0 0.247 0.055 0.48 0.155 0.689l-0.004-0.010-2.282 2.163v-1.23c0-0.883-0.716-1.599-1.599-1.599v0h-21.322c-0 0-0 0-0.001 0-0.883 0-1.599 0.716-1.599 1.599 0 0 0 0 0 0.001v-0 15.991h-0.533c-0.883 0-1.599 0.716-1.599 1.599 0 0 0 0 0 0.001v-0 2.133c0 0.883 0.716 1.599 1.599 1.599v0zM30.384 4.837c0.294 0 0.533 0.239 0.533 0.533s-0.239 0.533-0.533 0.533v0c-0.294 0-0.533-0.239-0.533-0.533s0.239-0.533 0.533-0.533v0zM3.199 6.969c0-0.295 0.239-0.534 0.533-0.534h21.322c0.294 0 0.533 0.239 0.533 0.534v2.238l-1.066 1.013v-2.185c0-0.295-0.238-0.533-0.533-0.533h-19.19c-0.295 0-0.533 0.239-0.533 0.533v13.326c0 0.295 0.239 0.534 0.533 0.534h19.19c0.294 0 0.533-0.239 0.533-0.534v-9.674l1.066-1.010v12.283h-22.388v-15.991zM7.996 13.899c-0.001 0-0.003 0-0.005 0-0.883 0-1.599 0.716-1.599 1.599s0.716 1.599 1.599 1.599c0.432 0 0.824-0.171 1.112-0.45l-0 0 1.853 0.93c0.215 0.108 0.476 0.057 0.636-0.123l3.938-4.431 3.872 2.902c0.208 0.156 0.498 0.139 0.686-0.040l3.365-3.188v8.131h-18.123v-12.26h18.124v2.66l-3.772 3.572-3.905-2.928c-0.088-0.066-0.199-0.106-0.319-0.106-0.158 0-0.3 0.069-0.398 0.178l-0 0.001-3.993 4.493-1.493-0.746c0.011-0.064 0.018-0.129 0.021-0.194-0-0.883-0.716-1.599-1.599-1.599h-0zM8.529 15.498c0 0.294-0.239 0.533-0.533 0.533s-0.533-0.239-0.533-0.533v0c0-0.294 0.239-0.533 0.533-0.533s0.533 0.239 0.533 0.533v0zM11.727 24.026h5.331v0.533c0 0.294-0.238 0.533-0.533 0.533h-4.264c-0.294 0-0.533-0.239-0.533-0.533v0-0.533zM1.066 24.56c0-0.294 0.239-0.533 0.533-0.533h9.062v0.533c0 0 0 0 0 0 0 0.883 0.716 1.599 1.599 1.599h4.265c0.883 0 1.599-0.716 1.599-1.599 0-0 0-0 0-0.001v0-0.533h9.061c0.295 0 0.534 0.238 0.534 0.533v2.133c0 0.294-0.239 0.533-0.534 0.533h-25.586c-0.294 0-0.533-0.239-0.533-0.533v0-2.133z"></path>
</symbol>
<symbol id="icon-facebook" viewBox="0 0 32 32">
<path fill="#f4f4fd" style="fill: var(--color3, #f4f4fd)" d="M21.329 5.313h2.921v-5.088c-0.504-0.069-2.237-0.225-4.256-0.225-4.212 0-7.097 2.649-7.097 7.519v4.481h-4.648v5.688h4.648v14.312h5.699v-14.311h4.46l0.708-5.688h-5.169v-3.919c0.001-1.644 0.444-2.769 2.735-2.769z"></path>
</symbol>
<symbol id="icon-Icon1" viewBox="0 0 75 32">
<path fill="#f4f4fd" style="fill: var(--color3, #f4f4fd)" d="M1.143 0h73.143c0.631 0 1.143 0.512 1.143 1.143v29.714c0 0.631-0.512 1.143-1.143 1.143h-73.143c-0.631 0-1.143-0.512-1.143-1.143v-29.714c0-0.631 0.512-1.143 1.143-1.143z"></path>
<path fill="#2e2f42" style="fill: var(--color5, #2e2f42)" d="M46.156 19.484l-4.825-4.86 0.535-2.637c0.138 0.054 0.285 0.082 0.433 0.083h0.004c0.004 0 0.009 0 0.015 0 0.681 0 1.234-0.552 1.234-1.234s-0.552-1.234-1.234-1.234c-0.681 0-1.234 0.552-1.234 1.234 0 0.148 0.026 0.29 0.074 0.422l-0.003-0.009-2.834 0.346-4.623-4.647c-0.055-0.056-0.131-0.091-0.215-0.091h-0c-0.080 0.001-0.157 0.032-0.213 0.089l-0.864 0.859c-0.055 0.055-0.089 0.131-0.089 0.216s0.034 0.16 0.089 0.216v0l0.465 0.471c-0.653 1.178-1.038 2.584-1.038 4.079 0 2.346 0.946 4.471 2.478 6.014l-0.001-0.001c0.024 0.023 0.053 0.042 0.083 0.056-0.018 0.094-0.029 0.202-0.030 0.312v3.536h-3.657c-0.841 0.001-1.523 0.683-1.524 1.524v0.61c0 0.169 0.137 0.305 0.305 0.305h14.019c0.168 0 0.305-0.137 0.305-0.305v-0.609c-0.001-0.841-0.683-1.523-1.524-1.524h-3.657v-1.567c0.573 0.12 1.157 0.181 1.742 0.183 1.474-0.002 2.86-0.379 4.067-1.041l-0.044 0.022 0.467 0.47c0.057 0.058 0.134 0.091 0.215 0.091 0.080-0.001 0.157-0.032 0.213-0.089l0.864-0.859c0.055-0.055 0.089-0.131 0.089-0.216s-0.034-0.16-0.089-0.216v0zM41.874 10.419c0.11-0.109 0.262-0.177 0.43-0.177 0.337 0 0.609 0.273 0.609 0.609s-0.273 0.609-0.609 0.609c-0 0-0 0-0 0h-0.002c-0.335-0.002-0.606-0.274-0.606-0.609 0-0.169 0.069-0.322 0.18-0.432l0-0h-0.001zM41.157 12.422l-0.342 1.683-0.672-0.675 1.014-1.008zM40.811 11.906l-1.097 1.091-0.849-0.853 1.946-0.237zM42.288 23.314c0.505 0 0.914 0.409 0.914 0.914v0.305h-13.409v-0.305c0-0.505 0.409-0.914 0.914-0.914v0h11.581zM38.021 22.095v0.61h-3.048v-0.61h3.048zM34.974 21.486v-2.316c0-0.739 0.684-1.341 1.524-1.341s1.524 0.602 1.524 1.341v2.316h-3.048zM38.631 20.517v-1.347c0-1.075-0.957-1.95-2.133-1.95-0.010-0-0.022-0-0.033-0-0.773 0-1.451 0.404-1.836 1.012l-0.005 0.009c-1.348-1.418-2.178-3.341-2.178-5.457 0-1.322 0.324-2.569 0.897-3.665l-0.021 0.044 10.63 10.691c-1.042 0.541-2.274 0.858-3.581 0.858-0.616 0-1.216-0.071-1.792-0.204l0.053 0.010zM45.082 20.126l-0.429-0.431-11.603-11.672 0.431-0.43 4.534 4.56c0.002 0 0.003 0.004 0.006 0.005l7.494 7.538-0.433 0.43z"></path>
<path fill="#4d5ae5" style="fill: var(--color4, #4d5ae5)" d="M36.5 18.438h-0.003c-0 0-0.001 0-0.001 0-0.505 0-0.914 0.409-0.914 0.914s0.409 0.914 0.913 0.914h0.003c0 0 0.001 0 0.001 0 0.505 0 0.914-0.409 0.914-0.914s-0.409-0.913-0.913-0.914h-0zM36.714 19.569c-0.055 0.055-0.131 0.089-0.215 0.089-0.168 0-0.305-0.137-0.305-0.305s0.136-0.304 0.304-0.305h0c0.168 0.001 0.303 0.137 0.303 0.305 0 0.084-0.034 0.161-0.090 0.216v0h0.003z"></path>
</symbol>
<symbol id="icon-Icon2" viewBox="0 0 75 32">
<path fill="#f4f4fd" style="fill: var(--color3, #f4f4fd)" d="M1.143 0h73.143c0.631 0 1.143 0.512 1.143 1.143v29.714c0 0.631-0.512 1.143-1.143 1.143h-73.143c-0.631 0-1.143-0.512-1.143-1.143v-29.714c0-0.631 0.512-1.143 1.143-1.143z"></path>
<path fill="#2e2f42" style="fill: var(--color5, #2e2f42)" d="M46.455 15.601c-0.001-4.83-3.917-8.744-8.747-8.743s-8.745 3.917-8.744 8.747c0.001 3.879 2.527 7.167 6.024 8.312l0.062 0.017c0.035 0.011 0.071 0.017 0.107 0.016 0.069 0 0.137-0.019 0.196-0.053 0.077-0.046 0.135-0.118 0.162-0.204l2.209-7c0.601-0.003 1.087-0.491 1.087-1.093 0-0.604-0.489-1.093-1.093-1.093-0.002 0-0.004 0-0.006 0h0c-0.171 0.001-0.332 0.041-0.475 0.112l0.006-0.003-2.918-2.918c-0.066-0.066-0.157-0.107-0.258-0.107-0.201 0-0.364 0.163-0.364 0.364 0 0.101 0.041 0.192 0.107 0.258v0l2.916 2.919c-0.069 0.138-0.109 0.3-0.109 0.472 0 0.344 0.162 0.65 0.413 0.846l0.002 0.002-2.104 6.67c-4.159-1.532-6.288-6.145-4.756-10.304s6.145-6.288 10.304-4.756c4.159 1.532 6.288 6.145 4.756 10.304-0.769 2.046-2.288 3.661-4.214 4.536l-0.050 0.020-0.227-1.071c-0.036-0.166-0.182-0.289-0.356-0.289-0.093 0-0.179 0.035-0.243 0.093l0-0-2.193 1.957c-0.075 0.067-0.122 0.164-0.122 0.272 0 0.162 0.106 0.299 0.252 0.347l0.003 0.001 2.799 0.893c0.033 0.011 0.072 0.018 0.112 0.018 0.201 0 0.364-0.163 0.364-0.364 0-0.027-0.003-0.053-0.008-0.078l0 0.002-0.223-1.051c3.159-1.357 5.331-4.441 5.331-8.032 0-0.007 0-0.013-0-0.020v0.001zM37.71 15.236c0.201 0 0.365 0.163 0.365 0.365s-0.163 0.365-0.365 0.365v0c-0.201 0-0.365-0.163-0.365-0.365s0.163-0.365 0.365-0.365v0zM38.91 23.73l1.248-1.113 0.345 1.623-1.593-0.51z"></path>
<path fill="#4d5ae5" style="fill: var(--color4, #4d5ae5)" d="M37.345 8.677v0.729c0 0.201 0.163 0.364 0.364 0.364s0.364-0.163 0.364-0.364v0-0.729c-0.006-0.197-0.167-0.354-0.364-0.354s-0.359 0.157-0.364 0.354v0.001zM30.786 15.236c-0.201 0-0.364 0.163-0.364 0.364s0.163 0.364 0.364 0.364h0.729c0.201 0 0.364-0.163 0.364-0.364s-0.163-0.364-0.364-0.364h-0.729zM44.633 15.965c0.201 0 0.364-0.163 0.364-0.364s-0.163-0.364-0.364-0.364h-0.729c-0.201 0-0.364 0.163-0.364 0.364s0.163 0.364 0.364 0.364h0.729z"></path>
</symbol>
<symbol id="icon-Icon3" viewBox="0 0 75 32">
<path fill="#f4f4fd" style="fill: var(--color3, #f4f4fd)" d="M1.143 0h73.143c0.631 0 1.143 0.512 1.143 1.143v29.714c0 0.631-0.512 1.143-1.143 1.143h-73.143c-0.631 0-1.143-0.512-1.143-1.143v-29.714c0-0.631 0.512-1.143 1.143-1.143z"></path>
<path fill="#4d5ae5" style="fill: var(--color4, #4d5ae5)" d="M37.1 15.409h0.609v2.741h-0.609v-2.741zM39.537 16.627h0.609v1.523h-0.609v-1.523zM34.663 17.541h0.609v0.609h-0.609v-0.609zM32.836 17.236h0.609v0.914h-0.609v-0.914z"></path>
<path fill="#2e2f42" style="fill: var(--color5, #2e2f42)" d="M29.485 23.023h14.621c0.505 0 0.914-0.409 0.914-0.914v0-1.219c0-0.505-0.409-0.914-0.914-0.914v0h-0.305v-7.596l1.73-1.639c0.119 0.060 0.258 0.095 0.407 0.095 0.508 0 0.919-0.412 0.919-0.919s-0.411-0.919-0.919-0.919c-0.508 0-0.919 0.412-0.919 0.919 0 0.141 0.032 0.275 0.088 0.394l-0.002-0.006-1.304 1.236v-0.703c0-0.505-0.409-0.914-0.914-0.914h-12.184c-0.505 0-0.914 0.409-0.914 0.914v0 9.138h-0.305c-0.505 0-0.914 0.409-0.914 0.914 0 0 0 0 0 0v0 1.219c0 0.505 0.409 0.914 0.914 0.914v0zM45.934 9.621c0.168 0 0.305 0.136 0.305 0.305s-0.136 0.305-0.305 0.305v0c-0.168 0-0.305-0.136-0.305-0.305s0.136-0.305 0.305-0.305v0zM30.399 10.839c0-0.169 0.136-0.305 0.305-0.305h12.184c0.168 0 0.305 0.137 0.305 0.305v1.279l-0.609 0.579v-1.249c0-0.168-0.136-0.305-0.305-0.305h-10.966c-0.168 0-0.305 0.136-0.305 0.305v7.615c0 0.169 0.136 0.305 0.305 0.305h10.966c0.168 0 0.305-0.137 0.305-0.305v-5.528l0.609-0.577v7.019h-12.793v-9.138zM33.141 14.799c-0.001 0-0.002 0-0.003 0-0.505 0-0.914 0.409-0.914 0.914s0.409 0.914 0.914 0.914c0.247 0 0.471-0.098 0.635-0.257l-0 0 1.059 0.531c0.123 0.061 0.272 0.033 0.364-0.070l2.251-2.532 2.213 1.658c0.119 0.089 0.285 0.079 0.392-0.023l1.923-1.821v4.646h-10.357v-7.006h10.357v1.52l-2.155 2.041-2.231-1.673c-0.050-0.038-0.114-0.061-0.183-0.061-0.090 0-0.172 0.039-0.227 0.102l-0 0-2.282 2.567-0.853-0.427c0.006-0.037 0.010-0.073 0.012-0.111 0-0.505-0.409-0.914-0.914-0.914v0zM33.445 15.713c0 0.003 0 0.006 0 0.009 0 0.168-0.136 0.305-0.305 0.305s-0.305-0.136-0.305-0.305c0-0.003 0-0.007 0-0.010v0c0.005-0.164 0.14-0.296 0.305-0.296s0.3 0.131 0.305 0.295v0zM35.273 20.587h3.046v0.305c0 0.168-0.136 0.305-0.305 0.305h-2.437c-0.168-0-0.304-0.136-0.305-0.305v0-0.305zM29.181 20.891c0-0.168 0.137-0.305 0.305-0.305h5.178v0.305c0 0.505 0.409 0.914 0.914 0.914v0h2.437c0.505 0 0.914-0.409 0.914-0.914v0-0.305h5.178c0.168 0 0.305 0.136 0.305 0.305v1.219c0 0.168-0.137 0.305-0.305 0.305h-14.621c-0.168-0-0.304-0.136-0.305-0.305v0-1.219z"></path>
</symbol>
<symbol id="icon-Icon4" viewBox="0 0 75 32">
<path fill="#f4f4fd" style="fill: var(--color3, #f4f4fd)" d="M1.143 0h73.143c0.631 0 1.143 0.512 1.143 1.143v29.714c0 0.631-0.512 1.143-1.143 1.143h-73.143c-0.631 0-1.143-0.512-1.143-1.143v-29.714c0-0.631 0.512-1.143 1.143-1.143z"></path>
<path fill="#4d5ae5" style="fill: var(--color4, #4d5ae5)" d="M46.842 9.442c-0.037-0.109-0.13-0.19-0.244-0.207l-0.002-0-1.091-0.159-0.489-0.989c-0.103-0.209-0.444-0.209-0.547 0l-0.489 0.989-1.092 0.159c-0.116 0.017-0.21 0.098-0.246 0.205l-0.001 0.002c-0.035 0.11-0.006 0.231 0.077 0.313l0.79 0.77-0.187 1.087c-0.019 0.114 0.027 0.23 0.121 0.298 0.095 0.069 0.219 0.077 0.321 0.023l0.977-0.513 0.977 0.513c0.041 0.022 0.090 0.035 0.142 0.035 0.067 0 0.129-0.022 0.18-0.059l-0.001 0.001c0.094-0.069 0.141-0.184 0.121-0.298l-0.186-1.087 0.79-0.77c0.057-0.056 0.092-0.133 0.092-0.218 0-0.034-0.005-0.066-0.015-0.096l0.001 0.002zM45.435 10.201c-0.071 0.070-0.105 0.171-0.087 0.27l0.109 0.637-0.572-0.3c-0.041-0.022-0.090-0.035-0.142-0.035s-0.101 0.013-0.144 0.036l0.002-0.001-0.572 0.3 0.109-0.637c0.003-0.016 0.004-0.033 0.004-0.052 0-0.085-0.035-0.163-0.092-0.218l-0-0-0.463-0.451 0.639-0.093c0.099-0.014 0.185-0.077 0.229-0.167l0.286-0.579 0.286 0.579c0.045 0.090 0.13 0.152 0.229 0.167l0.639 0.093-0.462 0.451zM43.505 18.584h-0.609v0.61h0.609v-0.61zM43.505 19.803h-0.609v0.61h0.609v-0.61zM44.114 19.194h-0.609v0.609h0.609v-0.609zM42.895 19.194h-0.61v0.609h0.61v-0.609zM41.371 21.937h-0.609v0.609h0.609v-0.609zM41.371 23.156h-0.609v0.609h0.609v-0.609zM41.981 22.546h-0.61v0.61h0.61v-0.61zM40.762 22.546h-0.61v0.61h0.61v-0.61zM37.714 20.717h-0.609v0.61h0.609v-0.61zM37.714 21.937h-0.609v0.609h0.609v-0.609zM38.324 21.327h-0.609v0.61h0.609v-0.61zM37.105 21.327h-0.61v0.61h0.61v-0.61zM31.924 10.355h-0.609v0.609h0.609v-0.609zM31.924 11.574h-0.609v0.61h0.609v-0.609zM32.533 10.965h-0.609v0.61h0.609v-0.61zM31.314 10.965h-0.61v0.61h0.61v-0.61z"></path>
<path fill="#2e2f42" style="fill: var(--color5, #2e2f42)" d="M42.694 14.948c-0.16-0.215-0.399-0.364-0.674-0.402l-0.005-0.001c-0.044-0.007-0.094-0.010-0.145-0.010-0.235 0-0.451 0.080-0.623 0.214l0.002-0.002-0.715 0.548-1.085 0.81-0.776-0.309c1.383-0.621 2.351-2.005 2.351-3.611 0-2.185-1.784-3.962-3.978-3.962s-3.978 1.777-3.978 3.962c0 0.792 0.237 1.528 0.64 2.148l-1.582-0.014c-0.005 0-0.009 0.002-0.013 0.003-0.032 0.002-0.062 0.008-0.091 0.018l0.002-0.001c-0.007 0.003-0.015 0.004-0.022 0.007-0.003 0.001-0.007 0.002-0.011 0.004l-1.848 0.912-1.082 0.521c-0.014 0.006-0.026 0.013-0.037 0.020l0.001-0c-0.275 0.185-0.454 0.495-0.454 0.847 0 0.17 0.041 0.329 0.115 0.47l-0.003-0.006c0.125 0.242 0.338 0.424 0.596 0.506l0.007 0.002c0.092 0.030 0.197 0.048 0.307 0.048 0.176 0 0.342-0.045 0.486-0.124l-0.005 0.003 0.793-0.422 1.294-0.668 0.775-0.004-3.875 3.857c-0.173 0.171-0.28 0.408-0.28 0.67 0 0.001 0 0.002 0 0.003v-0c0.001 0.525 0.427 0.951 0.952 0.951 0.001 0 0.001 0 0.002 0h-0c0.245 0 0.488-0.093 0.675-0.277l0.751-0.748 0.995-0.743 0.515 0.513-1.773 1.765c-0.173 0.171-0.28 0.408-0.28 0.671 0 0.001 0 0.002 0 0.003v-0c0 0.254 0.099 0.493 0.28 0.673 0.186 0.185 0.43 0.277 0.674 0.277 0.001 0 0.001 0 0.002 0 0.262 0 0.5-0.106 0.672-0.277l-0 0 2.565-2.555c0.004-0.004 0.009-0.005 0.013-0.009l2.952-3.233 1.983 0.282c0.012 0.002 0.025 0.003 0.039 0.003 0.040 0 0.078-0.008 0.113-0.022l-0.002 0.001c0.010-0.004 0.019-0.009 0.028-0.013 0.011-0.005 0.023-0.009 0.033-0.015l1.836-1.219c0.007-0.005 0.010-0.012 0.017-0.017s0.016-0.008 0.023-0.014l0.727-0.681c0.198-0.186 0.322-0.45 0.322-0.743 0-0.229-0.075-0.44-0.203-0.61l0.002 0.003zM29.789 17.011c-0.099 0.053-0.211 0.064-0.319 0.030-0.168-0.053-0.288-0.208-0.288-0.39 0-0.135 0.065-0.254 0.166-0.329l0.001-0.001 0.751-0.361 0.181 0.528 0.076 0.222-0.567 0.301zM31.787 15.967l-0.885 0.457-0.251-0.733 1.158-0.571-0.023 0.848zM40.415 12.184c0 0.525-0.125 1.020-0.342 1.463l-2.389-1.085c-0.025-0.329-0.196-0.613-0.447-0.791l-0.003-0.002 0.837-2.777c1.359 0.432 2.345 1.699 2.345 3.193zM33.679 12.184c0-1.849 1.511-3.352 3.368-3.352 0.145 0 0.286 0.012 0.426 0.030l-0.818 2.716c-0.011 0-0.021-0.003-0.033-0.003-0 0-0 0-0.001 0-0.59 0-1.068 0.477-1.069 1.066v0c0.002 0.589 0.48 1.067 1.069 1.067 0 0 0 0 0.001 0h-0c0.397 0 0.74-0.219 0.925-0.54l2.207 1.003c-0.614 0.827-1.597 1.366-2.707 1.366-1.857 0-3.368-1.504-3.368-3.353zM37.083 12.641c0 0.252-0.207 0.457-0.461 0.457-0 0-0.001 0-0.001 0-0.253 0-0.458-0.204-0.459-0.457v-0c0-0.252 0.207-0.457 0.461-0.457s0.461 0.205 0.461 0.457zM29.98 21.227c-0.063 0.062-0.149 0.1-0.244 0.1s-0.181-0.038-0.244-0.1l0 0c-0.062-0.062-0.101-0.147-0.101-0.241s0.038-0.18 0.101-0.241l0-0 0.55-0.548 0.486 0.484-0.548 0.546zM31.816 23.36c-0.063 0.062-0.149 0.101-0.244 0.101s-0.181-0.038-0.244-0.1l0 0c-0.062-0.061-0.101-0.147-0.101-0.241s0.039-0.18 0.101-0.241l0-0 0.55-0.548 0.487 0.484-0.548 0.546zM33.806 21.378c-0 0-0.001 0-0.001 0.001l-1.009 1.006-0.487-0.484 1.008-1.003c0 0 0.001 0 0.001-0.001 0.023-0.023 0.037-0.050 0.051-0.077 0.004-0.008 0.012-0.015 0.015-0.023 0.010-0.024 0.011-0.049 0.015-0.074 0.002-0.014 0.008-0.027 0.008-0.041 0-0.020-0.007-0.040-0.011-0.060-0.004-0.018-0.004-0.037-0.011-0.055-0.012-0.029-0.031-0.054-0.052-0.079-0.006-0.007-0.008-0.015-0.014-0.022h-0l-0.001-0.001-0.918-0.914c-0.010-0.010-0.022-0.014-0.033-0.022-0.015-0.012-0.031-0.023-0.048-0.032l-0.002-0.001c-0.015-0.007-0.033-0.014-0.051-0.018l-0.002-0c-0.017-0.005-0.037-0.009-0.058-0.011l-0.001-0c-0.004-0-0.008-0-0.012-0-0.015 0-0.030 0.001-0.044 0.003l0.002-0c-0.022 0.002-0.042 0.006-0.062 0.012l0.002-0.001c-0.021 0.007-0.038 0.016-0.055 0.026l0.001-0.001c-0.011 0.006-0.024 0.009-0.035 0.016l-1.013 0.757-0.515-0.513 1.371-1.364 2.492 2.451-0.53 0.525zM37.702 17.368c-0.009-0.001-0.017 0.002-0.026 0.002-0.005-0-0.010-0-0.016-0-0.036 0-0.071 0.006-0.103 0.017l0.002-0.001c-0.021 0.008-0.039 0.017-0.056 0.028l0.001-0.001c-0.018 0.011-0.033 0.022-0.048 0.035l0-0c-0.007 0.006-0.016 0.009-0.023 0.017l-2.685 2.941-2.473-2.433 1.619-1.61c0.055-0.055 0.089-0.131 0.089-0.216 0-0.168-0.136-0.305-0.305-0.305-0.001 0-0.001 0-0.002 0h0l-1.268 0.007 0.016-0.919 1.774 0.015c0.722 0.741 1.73 1.201 2.845 1.201 0.001 0 0.001 0 0.002 0h-0c0.25 0 0.494-0.026 0.731-0.070 0.023 0.018 0.045 0.037 0.074 0.049l1.377 0.549 0.087 0.433 0.102 0.506-1.716-0.244zM40.012 17.47l-0.179-0.89 0.827-0.617 0.541 0.718-1.189 0.789zM42.157 15.852l-0.479 0.449-0.532-0.707 0.475-0.364c0.089-0.069 0.2-0.096 0.31-0.082 0.201 0.029 0.354 0.2 0.354 0.406 0 0.117-0.049 0.223-0.128 0.297l-0 0z"></path>
<path fill="#2e2f42" style="fill: var(--color5, #2e2f42)" d="M36.344 17.454l-1.225-1.219c-0.055-0.055-0.131-0.089-0.215-0.089s-0.16 0.034-0.215 0.089v0l-1.224 1.219c-0.055 0.055-0.089 0.132-0.089 0.216s0.034 0.161 0.089 0.216v0l1.224 1.219c0.055 0.055 0.131 0.089 0.215 0.089s0.16-0.034 0.215-0.089v0l1.225-1.219c0.055-0.055 0.090-0.132 0.090-0.216s-0.034-0.161-0.090-0.216v0zM34.905 18.459l-0.792-0.789 0.792-0.789 0.793 0.789-0.793 0.789zM38.379 9.755l-0.147 0.592c0.041 0.010 0.993 0.258 0.993 1.228h0.609c0-1.153-0.952-1.695-1.455-1.82zM39.835 12.184h-0.609v0.61h0.609v-0.61z"></path>
</symbol>
</defs>
</svg>
